<svg id="Capa_1" data-name="Capa 1" xmlns="http://www.w3.org/2000/svg" viewBox="0 0 566.93 566.93"><defs><style>.cls-1{fill:#153f72;}.cls-2{fill:#fff;}</style></defs><rect class="cls-1" x="37.92" y="37.92" width="491.08" height="491.08" rx="32.78"/><path class="cls-2" d="M452.69,199.49l5.83.64,3.22-4a3.55,3.55,0,0,0-1.64-6l-21.18-5.37s-1.67.42-3.43-3.28a1.74,1.74,0,0,0-1.13-.92c-4.42-1.22-25.55-7-31.56-6.62a1.75,1.75,0,0,1-1.17-.38l-7.48-5.89a3.32,3.32,0,0,0-4.89.9l-1.54,2.58-2.12,9.1,12.74,2.64H381.86l2.5-8.87c-7.67,1.93-36.28,9.33-48.34,14.86a18.56,18.56,0,0,1-10.9,1.38c-1.18-.2-2.47-.46-3.87-.77A25.18,25.18,0,0,0,305.37,191l-2.48,1.12a2.25,2.25,0,0,1-1.33.28c-4.8-.74-41.83-6.25-61.71-3.19-20.94,3.22-86.27,32.71-89.71,43.91a1.55,1.55,0,0,1-.73.88c-2.68,1.62-13.06,8.7-9,19.54,0,0,1.43,6.42,4,2.78a1.79,1.79,0,0,1,3.22,1.1c-.14,12.58.22,32.57,3.5,40.89,7.52,9.44,25.55,31.89,34.82,42.16a1.92,1.92,0,0,1,.71.5l2.5,2.93.21.2v0l16.51,19.25a2,2,0,0,1,.38.75l5.89,24.43a1.82,1.82,0,0,0,1.72,1.38l33.32.61a1.8,1.8,0,0,0,1.61-2.66c-4.71-8.77-17.66-37.59-4.95-70.09l1.61-5.79a11.75,11.75,0,0,0-1-6.11l-12.32-27.38,20.52,29.26-1.19,5.6a78,78,0,0,1,17.57-5.26c5.07-9.8,19.63-37.95,19.81-38.86l-13.77,41.05-11.42,23.46s-.94,3,2.62,4.66a1.78,1.78,0,0,1,.92,2.1L254,389.43a1.81,1.81,0,0,0,1.74,2.27h31.82a1.8,1.8,0,0,0,1.46-2.84c-2.43-3.4-4.68-9.78,1.8-18.82,7.48-10.44,25.11-34.53,33.67-46.21h0l0,0,2.92-4,0,0,16.13-21.94-12.4,24.07c5.11,13.12,19,50.39,18.67,66.23a1.8,1.8,0,0,0,1.8,1.87h36.09a1.81,1.81,0,0,0,1.12-3.22l-12.27-9.71s-3.91-.25-1.57-29.38l3.5-89.73a1.62,1.62,0,0,1,.07-.44c.92-3.1,11.69-37.84,30.7-35.85a1.61,1.61,0,0,1,.64.21c2.78,1.55,30.31,11.55,28.24,7.77-3.88-7.08-3.89-5.65-6.14-11.17-.18-.44.82-4.59.88-5.06.26-2.23,2.22-5.12,11.55-8.53a1.79,1.79,0,0,1,2.37,1.71l.2,7.8L456,203.27C454.37,201.52,452.69,199.49,452.69,199.49Zm-37.2-16.59,15.6,4.4S418.56,192.57,415.49,182.9Z"/><path class="cls-2" d="M164.7,372.33a1.79,1.79,0,0,1,0-2L181,345.47c-8.21-8.72-22.49-25-29.42-39.52l-15.1,55.94a1.79,1.79,0,0,0,.35,1.62l17.45,21a1.92,1.92,0,0,1,.29.5c.55,1.39,4,8,19.48,6.43a1.81,1.81,0,0,0,1.32-2.78Z"/></svg>