<svg id="Capa_1" data-name="Capa 1" xmlns="http://www.w3.org/2000/svg" viewBox="0 0 476.43 183.83"><defs><style>.cls-1{fill:#fff;}</style></defs><path class="cls-1" d="M233.87,105.72c-.16-1.33-.34-2.47-.53-3.41s-.41-1.81-.68-2.67c-3.17-9.77-10.6-14.73-22.09-14.73H186v65.62h24.59c11.49,0,18.92-4.95,22.1-14.74.26-.84.48-1.74.67-2.65s.37-2.09.53-3.42.27-3,.34-4.93.09-4.33.09-7.07,0-5.12-.09-7.07S234,107.06,233.87,105.72ZM220.6,131.48a10.07,10.07,0,0,1-4.39,5.88,16.75,16.75,0,0,1-8.34,1.8h-9.48V96.28h9.48a16.64,16.64,0,0,1,8.34,1.81,10.12,10.12,0,0,1,4.41,5.92,8,8,0,0,1,.44,1.48,24.21,24.21,0,0,1,.32,2.48c.09,1,.17,2.34.23,3.93s.1,3.54.1,5.82,0,4.24-.1,5.82-.14,2.87-.23,3.89a23.7,23.7,0,0,1-.33,2.48A7,7,0,0,1,220.6,131.48Z"/><rect class="cls-1" x="240.32" y="85.01" width="12.41" height="65.52"/><path class="cls-1" d="M308.77,106.49a31.82,31.82,0,0,0-.53-3.57c-.22-1-.5-2.06-.82-3.09a21.75,21.75,0,0,0-8.66-11.93,28.7,28.7,0,0,0-29.33,0,21.74,21.74,0,0,0-8.66,11.94c-.32,1-.6,2-.82,3.08a27.52,27.52,0,0,0-.53,3.57c-.13,1.33-.23,2.92-.29,4.73s-.09,4-.09,6.5,0,4.73.09,6.51.16,3.39.29,4.72a28,28,0,0,0,.53,3.58c.22,1,.5,2.06.82,3.08a21.72,21.72,0,0,0,8.66,11.93,28.7,28.7,0,0,0,29.33,0,21.72,21.72,0,0,0,8.66-11.93c.32-1,.6-2.06.82-3.08a32,32,0,0,0,.53-3.58c.13-1.35.22-2.94.29-4.72s.09-4,.09-6.51,0-4.69-.09-6.5S308.9,107.85,308.77,106.49Zm-37.09,5.44c0-1.58.09-2.94.19-4.06a23.35,23.35,0,0,1,.36-2.75,18,18,0,0,1,.5-1.91,12,12,0,0,1,4-5.88,11.72,11.72,0,0,1,7.32-2.09,12,12,0,0,1,7.37,2.09,12.52,12.52,0,0,1,4.48,7.76c.13.75.24,1.69.33,2.78s.17,2.44.23,4.08.09,3.54.09,5.77,0,4.18-.09,5.78-.14,3-.23,4.07-.2,2-.33,2.78a12,12,0,0,1-.45,1.89,11.83,11.83,0,0,1-4,5.87,12,12,0,0,1-7.37,2.09,11.72,11.72,0,0,1-7.32-2.09,12,12,0,0,1-4-5.87,18,18,0,0,1-.5-1.91,23.55,23.55,0,0,1-.36-2.76c-.1-1.11-.16-2.48-.19-4.06s-.05-3.53-.05-5.79S271.65,113.53,271.68,111.93Z"/><path class="cls-1" d="M364.63,85H353.26v44.24l-25.39-43A2.4,2.4,0,0,0,325.72,85H315.46v65.52h11.36V106.38l25.49,42.9a2.4,2.4,0,0,0,2.15,1.25h10.17Z"/><rect class="cls-1" x="372.82" y="85.01" width="12.41" height="65.52"/><path class="cls-1" d="M437.7,135.35l-8-3.86a1.37,1.37,0,0,0-2.1.75,17.44,17.44,0,0,1-4.24,5.66,10.52,10.52,0,0,1-7.19,2.3,10.87,10.87,0,0,1-7-2.12,12.63,12.63,0,0,1-3.9-5.92q-.28-.91-.51-2a21.27,21.27,0,0,1-.36-2.66c-.1-1.09-.16-2.41-.19-3.92s-.05-3.49-.05-5.88,0-4.26.05-5.83.09-2.88.19-4a19.38,19.38,0,0,1,.36-2.6c0-.2.09-.4.14-.61a17.33,17.33,0,0,1,.75-2.45,12.28,12.28,0,0,1,3.52-4.9,10.93,10.93,0,0,1,7-2.12,10.57,10.57,0,0,1,7.19,2.3,17.65,17.65,0,0,1,4.23,5.62,1.51,1.51,0,0,0,.88,1,1.44,1.44,0,0,0,1.2-.15l8-3.85a1.41,1.41,0,0,0,.83-2,23.13,23.13,0,0,0-8.59-10.45,24.39,24.39,0,0,0-13.72-3.83,25.22,25.22,0,0,0-14.39,4c-4,2.69-6.84,6.8-8.52,12.21-.31,1-.59,2-.81,3a27.57,27.57,0,0,0-.54,3.48c-.12,1.31-.22,2.86-.28,4.63s-.1,3.92-.1,6.46,0,4.8.1,6.51.16,3.28.28,4.58a27,27,0,0,0,.54,3.48c.22,1,.49,2,.81,3,1.68,5.42,4.54,9.53,8.52,12.21a25.17,25.17,0,0,0,14.39,4,24.39,24.39,0,0,0,13.72-3.83,23.15,23.15,0,0,0,8.61-10.49A1.38,1.38,0,0,0,437.7,135.35Z"/><path class="cls-1" d="M52.84,141.28a.94.94,0,0,1,0-1l8.58-13.11c-4.45-4.5-12.18-12.92-15.72-20.46-2,7.43-7,25.88-7.85,29.08a.94.94,0,0,0,.19.85l9.26,11.16a.72.72,0,0,1,.15.27c.3.73,2.14,4.24,10.35,3.41a1,1,0,0,0,.7-1.47Z"/><path class="cls-1" d="M205.73,49.53l3.1.33,1.71-2.14a1.88,1.88,0,0,0-.87-3.16l-11.25-2.85s-.88.22-1.82-1.74a1,1,0,0,0-.6-.49c-2.34-.65-13.56-3.7-16.76-3.52a.89.89,0,0,1-.62-.2l-4-3.12a1.76,1.76,0,0,0-2.6.48l-.82,1.36h0l-1.13,4.84,6.77,1.4h-8.75L169.46,36c-4.08,1-19.26,5-25.67,7.88a9.84,9.84,0,0,1-5.79.74c-.62-.11-1.31-.24-2.05-.41a13.41,13.41,0,0,0-8.43.8l-1.32.6a1.26,1.26,0,0,1-.7.15c-2.55-.4-22.21-3.32-32.76-1.7C81.62,45.78,46.93,61.44,45.11,67.38a.83.83,0,0,1-.39.47c-1.42.86-6.93,4.62-4.76,10.37,0,0,.76,3.42,2.12,1.48a1,1,0,0,1,1.71.58C43.71,87,43.9,97.57,45.64,102c4,5,13.57,16.92,18.49,22.38a1,1,0,0,1,.38.26l1.33,1.56.1.11h0l8.76,10.22a1,1,0,0,1,.21.4l3.12,13a1,1,0,0,0,.92.73l17.68.33a1,1,0,0,0,.86-1.42c-2.5-4.65-9.37-20-2.62-37.21l.85-3.08a6.34,6.34,0,0,0-.51-3.24L88.67,91.49,99.56,107l-.63,3a41.61,41.61,0,0,1,9.33-2.79c2.69-5.2,10.42-20.15,10.51-20.63l-7.31,21.79-6.06,12.46a2.08,2.08,0,0,0,1.39,2.47,1,1,0,0,1,.49,1.12l-7,26a1,1,0,0,0,.92,1.21h16.89a1,1,0,0,0,.78-1.51c-1.29-1.8-2.49-5.19,1-10,4-5.54,13.33-18.33,17.88-24.53h0c.62-.84,1.15-1.56,1.56-2.13,0,0,0,0,0,0l8.56-11.64-6.59,12.78c2.72,7,10.12,26.75,9.92,35.16a1,1,0,0,0,1,1h19.16a1,1,0,0,0,.6-1.71l-6.52-5.16s-2.07-.13-.83-15.6l1.86-47.63a1,1,0,0,1,0-.24c.49-1.64,6.21-20.09,16.3-19a.8.8,0,0,1,.34.11c1.48.83,16.1,6.13,15,4.13-2.06-3.76-2.06-3-3.26-5.93a21.36,21.36,0,0,1,.47-2.69c.14-1.19,1.18-2.72,6.13-4.53a1,1,0,0,1,1.26.91l.11,4.14,4.74-5.92C206.63,50.6,205.73,49.53,205.73,49.53ZM186,40.72l8.29,2.33S187.61,45.85,186,40.72Z"/></svg>